# xmcd
#
# Track frame offsets: 
#        150
#        12918
#        30357
#        47003
#        73404
#        89802
#        106280
#        124999
#        144562
#        166729
#        183790
#        201168
#        211439
#        233090
#        248402
#        262889
#        279897
#        297414
#        327559
#
# Disc length: 4640 seconds
#
# Revision: 0
# Processed by: cddbd v1.5.2PL0 Copyright (c) Steve Scherf et al.
# Submitted via: ExactAudioCopy v0.99pb3
#
DISCID=14121e13
DTITLE=Various Artist - Un40rmulated [CDA)
DYEAR=2005
DGENRE=Unlabel
TTITLE0=Nub - Jeremiah
TTITLE1=Headquarters - (I'm Down With) The Amputation
TTITLE2=Joeyfat - But My Legs Belong To Daddy
TTITLE3=Die Munch Machine - Anthem Of The Munch
TTITLE4=Belt Motel - Mr. Vengeance
TTITLE5=I, Coelacanth - An Elephant Of Logic
TTITLE6=Dead Note Songbird - International Ravensong
TTITLE7=Paul Taylor and Kevin Tomkins - Termites Building A Tower To Inf
TTITLE7=iltrate Heaven (edit)
TTITLE8=Matra - Drome
TTITLE9=The Notorious Hi-Fi Killers - Falling (Upside Down)
TTITLE10=Hood - None Of The Above
TTITLE11=The Monochromat Fixation - One3Six
TTITLE12=Last Of The Real Hardmen - Claire
TTITLE13=That Fucking Tank - The Rain Travels All The Way From Siberia
TTITLE13=And This Is The First Place It Breaks
TTITLE14=Hunter's Loaf - 3AM Sweepstake (full band)
TTITLE15=S*M*A*S*H - One In The Chamber
TTITLE16=Alexander Tucker - Leander Winter
TTITLE17=Rebus - Undress
TTITLE18=Shink - Collapsible Chang
EXTD=
EXTT0=
EXTT1=
EXTT2=
EXTT3=
EXTT4=
EXTT5=
EXTT6=
EXTT7=
EXTT8=
EXTT9=
EXTT10=
EXTT11=
EXTT12=
EXTT13=
EXTT14=
EXTT15=
EXTT16=
EXTT17=
EXTT18=
PLAYORDER=
